# xmcd CD database file
#
# Track frame offsets:
#	150
#	18264
#	42450
#	56422
#	75093
#	89081
#	106172
#	116093
#	132519
#	149929
#	163290
#	179771
#	193061
#	211974
#	225578
#
# Disc length: 3212 seconds
#
# Revision: 0
# Processed by: cddbd v1.5.2PL0 Copyright (c) Steve Scherf et al.
# Submitted via: CDex 1.70beta2
#
DISCID=dc0c8a0f
DTITLE=João Paulo e Daniel  - Saudades
DYEAR=2009
DGENRE=Country
TTITLE0=Minha Estrela Perdida
TTITLE1=Te Amo Cada Vez Mais (To Love You More)
TTITLE2=Fazenda Sâo Francisco (Maior Proeza)
TTITLE3=Nelore Valente
TTITLE4=Vove Só Me Faz Feliz
TTITLE5=Desejo de Amar
TTITLE6=Dose de Paixão
TTITLE7=Olhos Claros
TTITLE8=Apaixonado Por Você
TTITLE9=Aos Trancos e Barrancos
TTITLE10=Malícia de Mulher
TTITLE11=Pedindo Bis
TTITLE12=Fricote
TTITLE13=Quando Cai a Chuva
TTITLE14=Você Nao Morre Mais
EXTD=YEAR: 2009
EXTT0=
EXTT1=
EXTT2=
EXTT3=
EXTT4=
EXTT5=
EXTT6=
EXTT7=
EXTT8=
EXTT9=
EXTT10=
EXTT11=
EXTT12=
EXTT13=
EXTT14=
PLAYORDER=
